<?xml version="1.0" encoding="utf-8"?>
<!-- Generator: Adobe Illustrator 19.2.0, SVG Export Plug-In . SVG Version: 6.00 Build 0)  -->
<svg version="1.1" id="Layer_1" xmlns="http://www.w3.org/2000/svg" xmlns:xlink="http://www.w3.org/1999/xlink" x="0px" y="0px"
     viewBox="0 0 53.4 50.4" style="enable-background:new 0 0 53.4 50.4;" xml:space="preserve">
    <defs>
    <style>.brassGradient{fill-rule:evenodd;fill:url(#brassGradient);}</style>
        <linearGradient id="brassGradient" x1="116.17" y1="50.39" x2="116.17" gradientUnits="userSpaceOnUse">
            <stop offset="0" stop-color="#7a6d2b"/>
            <stop offset="1" stop-color="#b3a662"/>
        </linearGradient>
    </defs>
    <title>fritz_logo_gradient</title>
    <path class="brassGradient" d="M46.6,0H33.2l-6.4,9.6L20.4,0H6.6L0,10.1l26.7,40.3l26.7-40.3L46.6,0z M2.7,10.1L7.9,2h11.2l6.4,9.7l-4.5,6.6 H7.9L2.7,10.1z M9.1,20.2h10.8l-5.5,7.9L9.1,20.2z M25.9,45.5l-9-13.7h9V45.5z M25.9,30h-10l6.4-9.8h3.6V30z M23.5,18.3l3.3-4.8 l3.3,4.8H23.5z M27.7,45.5V31.8h9L27.7,45.5z M27.7,30v-9.8h3.6l6.4,9.8H27.7z M39.2,28l-5.5-7.8h10.6L39.2,28z M32.5,18.3 L28,11.7L34.3,2h11.2l5.4,8.2l-5.3,8.2H32.5z"/>
</svg>
